<svg xmlns="http://www.w3.org/2000/svg" width="42" height="42" fill="none">
    <rect width="42" height="42" fill="#FFC6AB" rx="3.6" />
    <path fill="#662D12"
        d="M26.663 15.384A3.383 3.383 0 0 0 23.28 12h-7.895a3.383 3.383 0 0 0-3.383 3.384v7.894a3.383 3.383 0 0 0 3.383 3.384 3.383 3.383 0 0 0 3.384 3.383h7.894a3.383 3.383 0 0 0 3.384-3.383v-7.895a3.383 3.383 0 0 0-3.384-3.383Zm-5.97 10.15 4.842-4.842v1.789l-3.052 3.053h-1.79Zm-3.383 0 8.225-8.225v1.788L19.1 25.535h-1.788Zm4.045-9.022-4.842 4.841v-1.789l3.053-3.052h1.789Zm3.383 0-8.225 8.224v-1.788l6.436-6.436h1.79Zm-7.931 1.164c.204-.365.505-.667.87-.87l-.87.87Zm8.434 6.694a2.253 2.253 0 0 1-.87.87l.87-.87Zm3.678 2.292a2.259 2.259 0 0 1-2.256 2.255H18.77a2.258 2.258 0 0 1-2.256-2.255h6.767a3.383 3.383 0 0 0 3.383-3.384v-6.766a2.259 2.259 0 0 1 2.256 2.255v7.895Z" />
</svg>